# xmcd
#
# Track frame offsets:
#	150
#	18116
#	36634
#	57565
#	75446
#	93836
#	109098
#	124185
#	139661
#	154640
#	170365
#
# Disc length: 2489 seconds
#
# Revision: 0
# Processed by: cddbd v1.4PL0 Copyright (c) Steve Scherf et al.
# Submitted via: dBpowerAMP V4.0
#
DISCID=8509b70b
DTITLE=Hommage a sweet people -  Avec jean and christianne dic2
DYEAR=1900
DGENRE=
TTITLE0=Hasta manana
TTITLE1=Les jeux sont faits
TTITLE2=une chanson italienne
TTITLE3=Le temps qu'il nous reste
TTITLE4=Au revoir
TTITLE5=Pardon
TTITLE6=Sayonara good bye adieu
TTITLE7=Je t'attendrai my love
TTITLE8=Violon d'acadie
TTITLE9=Et j'ai le mal de toi
TTITLE10=Libertad
EXTD=
EXTT0=
EXTT1=
EXTT2=
EXTT3=
EXTT4=
EXTT5=
EXTT6=
EXTT7=
EXTT8=
EXTT9=
EXTT10=
PLAYORDER=
